name C:\Users\tom_v\MusculoskeletalSpecialization_revisited\Results\Case_20\motion.mot
datacolumns 32
datarows 8
range 0.24200909 0.27589037
endheader 
time	pelvis_tilt	pelvis_list	pelvis_rotation	pelvis_tx	pelvis_ty	pelvis_tz	hip_flexion_r	hip_adduction_r	hip_rotation_r	knee_angle_r	ankle_angle_r	subtalar_angle_r	mtp_angle_r	hip_flexion_l	hip_adduction_l	hip_rotation_l	knee_angle_l	ankle_angle_l	subtalar_angle_l	mtp_angle_l	lumbar_extension	lumbar_bending	lumbar_rotation	arm_flex_r	arm_add_r	arm_rot_r	elbow_flex_r	arm_flex_l	arm_add_l	arm_rot_l	elbow_flex_l	
          0.24200909	         -7.42071714	          2.91497842	        -14.56467110	          2.01343252	          0.95090223	          0.02047227	         14.78365013	         -6.69633111	          2.36963011	        -61.84677797	         -3.61668552	         12.22589818	         -4.10841526	         27.14721105	          2.89101770	         -9.92616045	         -1.15513700	         -5.88125519	        -26.56885070	          2.00590267	        -13.02656705	         -9.34614291	         11.52181353	         10.26706528	        -19.01237911	         -4.95095500	         52.92561509	        -22.95951529	         -1.71418833	        -13.08582350	         29.54618428	
          0.24684928	         -7.79698455	          2.54122181	        -13.51386722	          2.05457452	          0.94877510	          0.02057583	         16.74639832	         -6.02911607	          1.71262763	        -63.13064720	         -3.76699123	         11.69799616	         -1.09084796	         25.66498585	          3.47481557	         -9.85259271	         -0.75190380	         -7.94796948	        -25.62030740	          3.59717529	        -12.28872018	         -8.76332234	         11.15934962	         11.69225505	        -17.70154781	          1.86000354	         39.62625191	        -12.45116991	         -3.88347113	        -12.25099186	         15.90221042	
          0.25168946	         -8.18681985	          2.08108174	        -12.31997565	          2.09570147	          0.94574608	          0.02090669	         18.74391482	         -5.28405113	          0.98155017	        -64.52599821	         -2.94328974	         11.50098183	          1.64049379	         24.19207794	          3.93413856	         -9.16685839	         -0.55637292	         -9.74522263	        -25.72292689	          4.68808393	        -11.51354642	         -8.16224308	         10.81212426	         13.44316070	        -15.85216287	         10.09489232	         24.75643184	         -2.92391680	         -6.21858660	        -11.25717002	          5.09183997	
          0.25652964	         -8.70079097	          1.50883150	        -11.03531068	          2.13693598	          0.94166626	          0.02138822	         20.89606165	         -4.44279028	          0.18097561	        -66.00777974	         -0.74352127	         11.70177588	         -1.11128467	         22.81716195	          4.19390599	         -8.14156992	         -0.53397384	        -11.59730977	        -26.29514784	          5.69664503	        -10.63136034	         -7.45938269	         10.50147540	         14.05477350	        -13.17995615	         16.87298691	         11.28944724	          4.60644125	         -8.65341301	        -11.75837308	          0.13459663	
          0.26136982	         -9.37810165	          0.81762965	         -9.69400976	          2.17838415	          0.93670974	          0.02183688	         23.27102520	         -3.54708159	         -0.71924465	        -67.46976167	          0.82193683	         11.70796682	         -4.03889190	         21.58820033	          4.24618753	         -6.97881227	         -0.89814560	        -14.58899900	        -27.61025184	          7.16764826	         -9.61565211	         -6.63462311	         10.21616447	         12.49120308	        -10.63955436	         19.39393165	          2.36985292	          9.54887205	        -11.10036014	        -13.10464852	          2.49345046	
          0.26621000	        -10.08067329	          0.40138436	         -8.08184174	          2.21991026	          0.93169539	          0.02165035	         25.78638601	         -3.22207497	         -1.81949821	        -68.87440689	          0.97302509	         11.59629173	         -1.21420992	         20.58011656	          4.67235533	         -4.28849371	         -3.01376392	        -11.42418703	        -28.92338214	          8.52589235	         -8.63405915	         -6.15725235	          9.62335204	          8.57178034	         -9.20400484	         17.65656298	          0.00258039	         11.67485418	        -13.59324760	        -12.18663042	         12.56419812	
          0.27105018	        -10.49430200	          0.53470628	         -6.19072199	          2.26143866	          0.92759187	          0.02060946	         28.07920534	         -3.83600315	         -2.93974513	        -70.21546348	          1.58276012	         11.88001957	          1.93916549	         19.17379861	          5.97699458	          0.01107440	         -5.00765470	         -7.55321182	        -32.18911467	         10.62464034	         -8.09048280	         -6.39033202	          8.69247987	          1.95025118	         -8.94520660	         10.88551917	          5.59222273	         11.66195294	        -17.06298023	         -7.31597543	         28.94603927	
          0.27589037	        -10.59651778	          0.76508959	         -4.18919888	          2.30281834	          0.92432693	          0.01904480	         30.00372162	         -4.73420478	         -3.98803486	        -71.42173197	          3.59793134	         12.29251405	         -1.40246780	         17.21404337	          7.49116922	          4.49515643	         -6.44818769	         -5.65403977	        -36.52128188	         12.73108604	         -8.08877867	         -6.75224068	          7.74872063	         -7.82303085	         -8.65757379	         -0.48988098	         19.11540845	         11.81856722	        -22.25113005	         -0.16696556	         47.14673235	
